<svg xmlns="http://www.w3.org/2000/svg" version="1.1" xmlns:xlink="http://www.w3.org/1999/xlink" xmlns:svgjs="http://svgjs.com/svgjs" width="1000" height="1000"><g transform="matrix(1,0,0,1,0,0)"><svg xmlns="http://www.w3.org/2000/svg" version="1.1" xmlns:xlink="http://www.w3.org/1999/xlink" xmlns:svgjs="http://svgjs.com/svgjs" width="50px" height="50px"><svg fill="#000000" xmlns="http://www.w3.org/2000/svg" viewBox="0 0 50 50" width="50px" height="50px"><path fill="#000000" d="M30,37.06v-0.059h-0.039C29.974,37.021,29.987,37.04,30,37.06z"></path><path d="M43.51,28.78c-0.557-1.25-2.782-6.156-2.782-6.156c-1.258-3.361-5.455-3.623-6.71-3.623c-3.559,0-6.675,0.946-6.706,0.956l-0.294,0.044L22.729,20c-0.032-0.01-3.226-1-6.712-1c-1.644,0-5.586,0.351-6.701,3.597c0,0-2.233,4.93-2.789,6.18c-1.805,4.056-3.51,7.886-3.51,10.204c-0.006,0.332,0.071,1.512,1.327,2.789c1.116,1.134,3.735,2.207,7.198,2.989c0.907-0.941,2.11-2.422,2.504-4.001c0.135-0.536,0.678-0.86,1.213-0.728c0.536,0.134,0.861,0.677,0.728,1.213c-0.415,1.658-1.463,3.165-2.42,4.267C14.889,47.182,18.66,48,25.017,48c6.688,0,10.426-0.855,11.587-2.669c-0.574-0.822-1.231-1.927-1.55-3.061c-0.149-0.531,0.161-1.083,0.692-1.233c0.53-0.149,1.083,0.161,1.233,0.692c0.303,1.076,1.083,2.25,1.656,2.994c3.39-0.779,5.954-1.836,7.054-2.954c1.257-1.276,1.334-2.458,1.328-2.77C47.017,36.663,45.314,32.834,43.51,28.78z M33.929,33.372C33.772,33.762,33.396,34,33,34c-0.124,0-0.249-0.023-0.371-0.071c-0.513-0.205-0.762-0.787-0.558-1.3c0.373-0.933,1.159-3.056,1.604-4.762C32.801,28.024,32.017,28,32.017,28h-5.295C26.895,28.295,27,28.634,27,29l0,1l5,8h-7h-7l5-8l0-1c0-0.366,0.106-0.705,0.277-1h-5.26c0,0-0.806,0.023-1.694-0.141c0.444,1.707,1.232,3.835,1.606,4.77c0.205,0.513-0.044,1.095-0.558,1.3C17.25,33.977,17.124,34,17,34c-0.397,0-0.772-0.238-0.929-0.628C15.859,32.841,14,28.131,14,26c0-0.038,0.017-0.07,0.022-0.107C14.064,23.78,15.38,21,18.375,21c2.875,0,5.642,2,5.642,2v4.268C24.309,27.102,24.641,27,25,27c0.373,0,0.718,0.109,1.017,0.287V23c0,0,2.768-2,5.643-2c3.045,0,4.357,2.875,4.357,5c0,0.087-0.017,0.164-0.029,0.244C35.865,28.467,34.133,32.86,33.929,33.372z"></path><path d="M24 32H26V38H24zM29 38L27 38 27 30 29 32.375zM21 38L23 38 23 30 21 32zM16 17c3.395 0 6.44.802 7.143 1.001h3.713c.701-.201 3.701-1 7.144-1 1.008 0 3.522.15 5.656 1.437l-.127-.475c-.29-1.256-.469-2.281-.533-3.049-.013-.151-.044-.271-.074-.374-.04-.347-.097-.665-.161-.906C37.701 8.382 33.26 4.487 28 4.044V4c0-1.103-.897-2-2-2h-2c-1.103 0-2 .897-2 2v.044C16.741 4.487 12.3 8.379 11.25 13.58c-.074.286-.132.608-.172.958-.025.085-.061.213-.074.378-.063.748-.237 1.753-.519 2.986-.034.15-.072.298-.107.448C12.371 17.186 14.731 17 16 17zM24 4h2v14h-2V4zM15.062 12.655c1.277-3.478 4.492-4.562 4.628-4.606.528-.172 1.09.117 1.261.641s-.114 1.086-.636 1.259c-.109.037-2.443.856-3.376 3.396C16.79 13.75 16.407 14 16 14c-.115 0-.231-.02-.345-.062C15.137 13.748 14.871 13.174 15.062 12.655z"></path></svg></svg></g></svg>